<svg width="133" height="45" viewBox="0 0 133 45" fill="none" xmlns="http://www.w3.org/2000/svg">
<g clip-path="url(#clip0_734_14)">
<path d="M122.409 0.00014625H10.5973C10.1897 0.00014625 9.78703 0.00014625 9.38054 0.00239625C9.04027 0.00464625 8.70271 0.0111825 8.35918 0.0166837C7.61286 0.0255733 6.86829 0.092032 6.13195 0.215483C5.39665 0.34162 4.68438 0.579426 4.01923 0.920857C3.3549 1.26518 2.74787 1.71258 2.22019 2.24685C1.68973 2.77961 1.24756 3.39541 0.910662 4.07058C0.572839 4.74439 0.338591 5.46645 0.216009 6.21181C0.0922621 6.95623 0.0256726 7.70923 0.0168384 8.46406C0.00652418 8.80899 0.00543496 9.15506 0 9.50003V35.5036C0.00543496 35.8529 0.00652418 36.1913 0.0168384 36.5407C0.0256753 37.2955 0.0922648 38.0485 0.216009 38.7928C0.338253 39.5386 0.572514 40.2611 0.910662 40.9352C1.2474 41.6082 1.68964 42.2215 2.22019 42.7513C2.74587 43.2879 3.35329 43.7356 4.01923 44.0773C4.68437 44.4197 5.39656 44.6589 6.13195 44.787C6.86842 44.9094 7.6129 44.9759 8.35918 44.9859C8.70271 44.9935 9.04027 44.9979 9.38054 44.9979C9.78702 45.0001 10.1897 45.0001 10.5973 45.0001H122.409C122.808 45.0001 123.214 45.0001 123.614 44.9979C123.952 44.9979 124.299 44.9935 124.638 44.9859C125.383 44.9764 126.126 44.9099 126.861 44.787C127.599 44.658 128.314 44.4188 128.982 44.0773C129.647 43.7354 130.254 43.2877 130.779 42.7513C131.309 42.2194 131.752 41.6065 132.093 40.9352C132.428 40.2606 132.66 39.5382 132.781 38.7928C132.905 38.0484 132.974 37.2956 132.987 36.5407C132.991 36.1913 132.991 35.8529 132.991 35.5036C133 35.0949 133 34.6884 133 34.273V10.7283C133 10.3163 133 9.90762 132.991 9.50003C132.991 9.15506 132.991 8.80899 132.987 8.46402C132.974 7.70912 132.905 6.95629 132.781 6.21177C132.66 5.46684 132.428 4.74484 132.093 4.07053C131.407 2.71724 130.319 1.61567 128.982 0.920756C128.314 0.58016 127.599 0.342417 126.861 0.215381C126.126 0.0913869 125.383 0.024905 124.638 0.0165262C124.299 0.0110362 123.952 0.00444375 123.614 0.00225C123.214 0 122.808 0.00014625 122.409 0.00014625Z" fill="#A6A6A6"/>
<path d="M9.38587 44.0156C9.04724 44.0156 8.71678 44.0112 8.38081 44.0036C7.6848 43.9944 6.99042 43.9331 6.30336 43.8201C5.66271 43.7084 5.0421 43.5007 4.46199 43.2037C3.88719 42.9092 3.36294 42.5231 2.9093 42.06C2.44909 41.6025 2.06595 41.0718 1.77506 40.489C1.48096 39.9024 1.27742 39.2736 1.17154 38.6246C1.0572 37.9273 0.995338 37.2221 0.986486 36.5153C0.97944 36.278 0.970215 35.488 0.970215 35.488V9.49988C0.970215 9.49988 0.98004 8.72205 0.986542 8.49352C0.995018 7.78779 1.05652 7.08373 1.17052 6.38745C1.27659 5.73666 1.48029 5.10609 1.77455 4.51758C2.06437 3.93519 2.44539 3.40409 2.90282 2.94489C3.35974 2.48132 3.88567 2.09318 4.46144 1.79461C5.04022 1.49861 5.65966 1.29232 6.29901 1.18268C6.98833 1.06857 7.68512 1.00687 8.38354 0.998111L9.38642 0.984375H123.608L124.623 0.998663C125.315 1.00699 126.005 1.06813 126.688 1.18158C127.334 1.2926 127.96 1.50032 128.545 1.79791C129.699 2.39961 130.638 3.35156 131.23 4.52033C131.519 5.10478 131.72 5.73019 131.824 6.37536C131.94 7.07737 132.004 7.78696 132.018 8.49848C132.021 8.81708 132.021 9.1593 132.021 9.49988C132.03 9.92176 132.03 10.3233 132.03 10.7281V34.2729C132.03 34.6816 132.03 35.0804 132.021 35.4825C132.021 35.8484 132.021 36.1835 132.017 36.5284C132.004 37.2272 131.94 37.9242 131.827 38.6136C131.723 39.2673 131.52 39.901 131.226 40.4923C130.933 41.0688 130.552 41.5949 130.098 42.0513C129.644 42.5168 129.118 42.9052 128.542 43.2016C127.958 43.5008 127.333 43.7093 126.688 43.8201C126.001 43.9337 125.307 43.995 124.611 44.0036C124.285 44.0112 123.944 44.0156 123.613 44.0156L122.409 44.0179L9.38587 44.0156Z" fill="black"/>
<path d="M27.5292 22.8384C27.5411 21.8994 27.7875 20.9787 28.2455 20.162C28.7034 19.3453 29.358 18.6591 30.1483 18.1673C29.6463 17.4415 28.9839 16.8442 28.2139 16.4228C27.4438 16.0014 26.5873 15.7676 25.7124 15.7399C23.846 15.5416 22.0366 16.8703 21.0856 16.8703C20.1161 16.8703 18.6517 15.7596 17.0749 15.7924C16.055 15.8258 15.0609 16.126 14.1897 16.6638C13.3185 17.2016 12.5997 17.9587 12.1035 18.8613C9.95397 22.6283 11.5573 28.1644 13.6164 31.2094C14.6466 32.7004 15.8506 34.3659 17.426 34.3068C18.9677 34.2421 19.5434 33.3118 21.4043 33.3118C23.248 33.3118 23.7881 34.3068 25.3955 34.2693C27.0498 34.2421 28.092 32.7716 29.0861 31.2665C29.8263 30.2041 30.3959 29.0299 30.7737 27.7874C29.8127 27.376 28.9925 26.6873 28.4155 25.8072C27.8385 24.9271 27.5303 23.8946 27.5292 22.8384Z" fill="white"/>
<path d="M24.4931 13.7372C25.3951 12.6413 25.8395 11.2326 25.7319 9.8103C24.3539 9.9568 23.081 10.6234 22.1668 11.6774C21.7199 12.1922 21.3775 12.7912 21.1594 13.4401C20.9413 14.089 20.8517 14.775 20.8956 15.4589C21.5849 15.4661 22.2668 15.3149 22.8899 15.0167C23.5131 14.7185 24.0612 14.281 24.4931 13.7372Z" fill="white"/>
<path d="M47.0165 30.5321H41.7556L40.4922 34.3081H38.2639L43.247 20.3379H45.5621L50.5452 34.3081H48.2788L47.0165 30.5321ZM42.3005 28.7897H46.4706L44.4149 22.6615H44.3574L42.3005 28.7897Z" fill="white"/>
<path d="M61.3069 29.2161C61.3069 32.3813 59.6332 34.4148 57.1075 34.4148C56.4677 34.4487 55.8314 34.2995 55.2715 33.9844C54.7115 33.6692 54.2506 33.2008 53.9414 32.6328H53.8936V37.6778H51.8281V24.1229H53.8275V25.8169H53.8654C54.1888 25.2517 54.6576 24.7857 55.2218 24.4686C55.786 24.1516 56.4245 23.9952 57.0695 24.0163C59.6234 24.0163 61.3069 26.0597 61.3069 29.2161ZM59.1839 29.2161C59.1839 27.154 58.131 25.7983 56.5247 25.7983C54.9465 25.7983 53.885 27.1825 53.885 29.2161C53.885 31.2684 54.9465 32.6428 56.5247 32.6428C58.131 32.6428 59.1839 31.2969 59.1839 29.2161Z" fill="white"/>
<path d="M72.3821 29.2161C72.3821 32.3813 70.7084 34.4148 68.1827 34.4148C67.5429 34.4487 66.9066 34.2995 66.3467 33.9844C65.7867 33.6692 65.3258 33.2008 65.0166 32.6328H64.9688V37.6778H62.9033V24.1228H64.9026V25.8169H64.9406C65.264 25.2517 65.7327 24.7857 66.2969 24.4686C66.8611 24.1516 67.4997 23.9952 68.1447 24.0163C70.6987 24.0163 72.3821 26.0597 72.3821 29.2161ZM70.2591 29.2161C70.2591 27.154 69.2062 25.7983 67.5999 25.7983C66.0217 25.7983 64.9602 27.1825 64.9602 29.2161C64.9602 31.2684 66.0217 32.6427 67.5999 32.6427C69.2062 32.6427 70.2591 31.2969 70.2591 29.2161Z" fill="white"/>
<path d="M79.702 30.4157C79.8551 31.8011 81.1847 32.7107 83.0016 32.7107C84.7426 32.7107 85.9952 31.801 85.9952 30.5519C85.9952 29.4675 85.2397 28.8183 83.451 28.3733L81.6623 27.9371C79.1279 27.3175 77.9513 26.1178 77.9513 24.171C77.9513 21.7606 80.0266 20.105 82.9734 20.105C85.8898 20.105 87.8892 21.7606 87.9565 24.171H85.8714C85.7466 22.7769 84.608 21.9353 82.9441 21.9353C81.2802 21.9353 80.1416 22.7868 80.1416 24.026C80.1416 25.0137 80.8688 25.5949 82.6478 26.0398L84.1684 26.4177C87.0002 27.0956 88.1768 28.2469 88.1768 30.2904C88.1768 32.904 86.1199 34.541 82.8486 34.541C79.7877 34.541 77.7212 32.9425 77.5876 30.4156L79.702 30.4157Z" fill="white"/>
<path d="M92.6346 21.7124V24.1228H94.5481V25.7784H92.6346V31.3936C92.6346 32.2659 93.0177 32.6724 93.8589 32.6724C94.0861 32.6684 94.3129 32.6522 94.5384 32.624V34.2697C94.1602 34.3413 93.7758 34.3737 93.3911 34.3664C91.3538 34.3664 90.5593 33.5919 90.5593 31.6165V25.7784H89.0962V24.1228H90.5593V21.7124H92.6346Z" fill="white"/>
<path d="M95.6565 29.2161C95.6565 26.0114 97.5212 23.9976 100.429 23.9976C103.347 23.9976 105.203 26.0113 105.203 29.2161C105.203 32.4296 103.356 34.4346 100.429 34.4346C97.5027 34.4346 95.6565 32.4296 95.6565 29.2161ZM103.098 29.2161C103.098 27.0177 102.103 25.7202 100.429 25.7202C98.7553 25.7202 97.7611 27.0276 97.7611 29.2161C97.7611 31.4232 98.7553 32.7108 100.429 32.7108C102.103 32.7108 103.098 31.4232 103.098 29.2161Z" fill="white"/>
<path d="M106.905 24.1228H108.875V25.8564H108.923C109.056 25.3149 109.37 24.8364 109.811 24.5013C110.251 24.1662 110.793 23.9949 111.343 24.0162C111.582 24.0153 111.819 24.0415 112.051 24.0942V26.0497C111.751 25.9568 111.437 25.9141 111.123 25.9234C110.823 25.9111 110.524 25.9646 110.246 26.0804C109.969 26.1961 109.719 26.3713 109.514 26.594C109.31 26.8166 109.155 27.0814 109.062 27.3701C108.968 27.6589 108.937 27.9648 108.971 28.2668V34.3082H106.905L106.905 24.1228Z" fill="white"/>
<path d="M121.574 31.3167C121.297 33.1656 119.518 34.4346 117.242 34.4346C114.314 34.4346 112.497 32.4493 112.497 29.2644C112.497 26.0696 114.324 23.9976 117.155 23.9976C119.939 23.9976 121.69 25.9333 121.69 29.0216V29.7379H114.582V29.8643C114.55 30.2391 114.596 30.6167 114.718 30.972C114.841 31.3274 115.037 31.6523 115.293 31.9251C115.549 32.198 115.859 32.4126 116.203 32.5547C116.548 32.6968 116.918 32.7631 117.289 32.7493C117.777 32.7956 118.267 32.6811 118.686 32.423C119.105 32.1649 119.43 31.7769 119.613 31.3166L121.574 31.3167ZM114.592 28.2767H119.623C119.641 27.9397 119.591 27.6024 119.475 27.286C119.358 26.9697 119.179 26.6811 118.947 26.4383C118.715 26.1956 118.436 26.004 118.128 25.8755C117.819 25.747 117.488 25.6844 117.155 25.6917C116.818 25.6896 116.485 25.755 116.174 25.8841C115.862 26.0132 115.58 26.2034 115.341 26.4437C115.103 26.6841 114.914 26.9698 114.786 27.2844C114.657 27.599 114.591 27.9363 114.592 28.2767Z" fill="white"/>
<path d="M42.0417 9.82256C42.4747 9.7911 42.9093 9.85732 43.314 10.0164C43.7187 10.1755 44.0834 10.4236 44.3819 10.7427C44.6804 11.0617 44.9053 11.4439 45.0402 11.8616C45.1751 12.2793 45.2168 12.722 45.1622 13.158C45.1622 15.3025 44.0171 16.5353 42.0417 16.5353H39.6462V9.82256H42.0417ZM40.6763 15.5859H41.9266C42.2361 15.6047 42.5457 15.5533 42.8331 15.4356C43.1204 15.3179 43.3783 15.1369 43.5878 14.9056C43.7973 14.6743 43.9532 14.3987 44.0442 14.0987C44.1351 13.7988 44.1589 13.4821 44.1137 13.1717C44.1556 12.8625 44.1295 12.5478 44.0371 12.25C43.9447 11.9523 43.7884 11.6789 43.5794 11.4495C43.3703 11.22 43.1138 11.0403 42.828 10.923C42.5423 10.8057 42.2345 10.7539 41.9266 10.7712H40.6763V15.5859Z" fill="white"/>
<path d="M46.3259 14C46.2944 13.6671 46.332 13.3312 46.4363 13.0139C46.5406 12.6966 46.7093 12.4048 46.9315 12.1573C47.1537 11.9098 47.4246 11.7121 47.7268 11.5768C48.0289 11.4415 48.3557 11.3716 48.6861 11.3716C49.0165 11.3716 49.3432 11.4415 49.6454 11.5768C49.9475 11.7121 50.2184 11.9098 50.4406 12.1573C50.6628 12.4048 50.8315 12.6966 50.9358 13.0139C51.0401 13.3312 51.0777 13.6671 51.0462 14C51.0783 14.3333 51.0411 14.6696 50.9371 14.9875C50.8331 15.3053 50.6645 15.5976 50.4422 15.8456C50.22 16.0935 49.9489 16.2917 49.6464 16.4273C49.344 16.5629 49.0168 16.6329 48.6861 16.6329C48.3553 16.6329 48.0281 16.5629 47.7257 16.4273C47.4232 16.2917 47.1522 16.0935 46.9299 15.8456C46.7076 15.5976 46.539 15.3053 46.435 14.9875C46.331 14.6696 46.2938 14.3333 46.3259 14ZM50.0303 14C50.0303 12.9019 49.543 12.2598 48.6877 12.2598C47.8291 12.2598 47.3462 12.9019 47.3462 14C47.3462 15.1069 47.8292 15.7441 48.6877 15.7441C49.543 15.7441 50.0303 15.1025 50.0303 14Z" fill="white"/>
<path d="M57.3208 16.535H56.2962L55.2619 12.8041H55.1837L54.1537 16.535H53.1388L51.7593 11.4692H52.7611L53.6576 15.3347H53.7314L54.7604 11.4692H55.708L56.7369 15.3347H56.8151L57.7072 11.4692H58.6949L57.3208 16.535Z" fill="white"/>
<path d="M59.8552 11.4692H60.806V12.274H60.8798C61.0051 11.9849 61.2162 11.7426 61.4839 11.5809C61.7517 11.4191 62.0626 11.3459 62.3733 11.3714C62.6169 11.3529 62.8614 11.3901 63.0888 11.4802C63.3162 11.5703 63.5206 11.711 63.687 11.892C63.8534 12.0729 63.9774 12.2894 64.0498 12.5255C64.1223 12.7615 64.1414 13.0111 64.1056 13.2556V16.535H63.1179V13.5066C63.1179 12.6926 62.7684 12.2877 62.038 12.2877C61.8726 12.2799 61.7076 12.3084 61.5541 12.3712C61.4007 12.434 61.2625 12.5297 61.149 12.6516C61.0355 12.7735 60.9493 12.9189 60.8965 13.0776C60.8437 13.2364 60.8254 13.4049 60.8429 13.5715V16.535H59.8552L59.8552 11.4692Z" fill="white"/>
<path d="M65.6794 9.4917H66.6672V16.535H65.6794V9.4917Z" fill="white"/>
<path d="M68.0402 13.9999C68.0087 13.6669 68.0464 13.331 68.1507 13.0137C68.255 12.6963 68.4237 12.4046 68.646 12.1571C68.8682 11.9096 69.1391 11.7119 69.4413 11.5765C69.7435 11.4412 70.0702 11.3713 70.4007 11.3713C70.7311 11.3713 71.0578 11.4412 71.36 11.5765C71.6622 11.7119 71.9331 11.9096 72.1553 12.1571C72.3776 12.4046 72.5463 12.6963 72.6506 13.0137C72.7549 13.331 72.7926 13.6669 72.7611 13.9999C72.7931 14.3331 72.7559 14.6695 72.6519 14.9873C72.5478 15.3052 72.3792 15.5974 72.1569 15.8454C71.9346 16.0934 71.6635 16.2915 71.3611 16.4271C71.0586 16.5627 70.7315 16.6327 70.4007 16.6327C70.0699 16.6327 69.7427 16.5627 69.4402 16.4271C69.1378 16.2915 68.8667 16.0934 68.6444 15.8454C68.4221 15.5974 68.2535 15.3052 68.1494 14.9873C68.0454 14.6695 68.0082 14.3331 68.0402 13.9999ZM71.7446 13.9999C71.7446 12.9018 71.2573 12.2596 70.402 12.2596C69.5435 12.2596 69.0605 12.9018 69.0605 13.9999C69.0605 15.1067 69.5435 15.7439 70.402 15.7439C71.2573 15.7439 71.7446 15.1023 71.7446 13.9999Z" fill="white"/>
<path d="M73.801 15.1025C73.801 14.1907 74.4718 13.665 75.6625 13.5903L77.0181 13.5112V13.0739C77.0181 12.5389 76.6686 12.2368 75.9935 12.2368C75.4421 12.2368 75.0601 12.4416 74.9505 12.7998H73.9942C74.0952 11.9297 74.9038 11.3716 76.0391 11.3716C77.2938 11.3716 78.0015 12.0038 78.0015 13.0739V16.5352H77.0507V15.8232H76.9726C76.8139 16.0786 76.5912 16.2868 76.3271 16.4265C76.063 16.5663 75.767 16.6325 75.4693 16.6186C75.2592 16.6407 75.0468 16.618 74.8459 16.552C74.645 16.486 74.46 16.3781 74.3028 16.2352C74.1457 16.0924 74.0198 15.9178 73.9334 15.7227C73.8469 15.5276 73.8019 15.3163 73.801 15.1025ZM77.0181 14.6697V14.2461L75.796 14.3252C75.1068 14.3719 74.7942 14.6092 74.7942 15.0558C74.7942 15.5118 75.1849 15.7771 75.7222 15.7771C75.8796 15.7932 76.0387 15.7771 76.1898 15.7298C76.341 15.6824 76.4812 15.6048 76.6021 15.5015C76.723 15.3981 76.8222 15.2712 76.8936 15.1284C76.9651 14.9855 77.0074 14.8295 77.0181 14.6697Z" fill="white"/>
<path d="M79.2996 14C79.2996 12.3992 80.1125 11.3852 81.377 11.3852C81.6898 11.3706 82.0002 11.4465 82.272 11.6038C82.5438 11.7612 82.7657 11.9936 82.9118 12.274H82.9856V9.4917H83.9733V16.535H83.0268V15.7347H82.9487C82.7913 16.0131 82.5616 16.2426 82.2846 16.3984C82.0076 16.5542 81.6937 16.6303 81.377 16.6185C80.1038 16.6186 79.2996 15.6045 79.2996 14ZM80.3199 14C80.3199 15.0744 80.8202 15.721 81.6571 15.721C82.4896 15.721 83.004 15.0651 83.004 14.0044C83.004 12.9486 82.4842 12.2833 81.6571 12.2833C80.8256 12.2833 80.3199 12.9343 80.3199 14Z" fill="white"/>
<path d="M88.0597 14C88.0283 13.6671 88.0659 13.3312 88.1702 13.0139C88.2745 12.6966 88.4432 12.4048 88.6654 12.1573C88.8876 11.9098 89.1585 11.7121 89.4606 11.5768C89.7628 11.4415 90.0895 11.3716 90.4199 11.3716C90.7503 11.3716 91.0771 11.4415 91.3792 11.5768C91.6814 11.7121 91.9522 11.9098 92.1745 12.1573C92.3967 12.4048 92.5654 12.6966 92.6697 13.0139C92.774 13.3312 92.8116 13.6671 92.7801 14C92.8122 14.3333 92.775 14.6696 92.671 14.9875C92.567 15.3053 92.3984 15.5976 92.1761 15.8456C91.9538 16.0935 91.6828 16.2917 91.3803 16.4273C91.0779 16.5629 90.7507 16.6329 90.4199 16.6329C90.0891 16.6329 89.762 16.5629 89.4596 16.4273C89.1571 16.2917 88.886 16.0935 88.6638 15.8456C88.4415 15.5976 88.2729 15.3053 88.1689 14.9875C88.0649 14.6696 88.0277 14.3333 88.0597 14ZM91.7642 14C91.7642 12.9019 91.2768 12.2598 90.4216 12.2598C89.563 12.2598 89.0801 12.9019 89.0801 14C89.0801 15.1069 89.5631 15.7441 90.4216 15.7441C91.2769 15.7441 91.7642 15.1025 91.7642 14Z" fill="white"/>
<path d="M94.1055 11.4692H95.0563V12.274H95.1301C95.2553 11.9849 95.4665 11.7426 95.7342 11.5809C96.0019 11.4191 96.3128 11.3459 96.6236 11.3714C96.8671 11.3529 97.1116 11.3901 97.339 11.4802C97.5664 11.5703 97.7709 11.711 97.9372 11.892C98.1036 12.0729 98.2276 12.2894 98.3001 12.5255C98.3726 12.7615 98.3916 13.0111 98.3559 13.2556V16.535H97.3682V13.5066C97.3682 12.6926 97.0187 12.2877 96.2882 12.2877C96.1229 12.2799 95.9578 12.3084 95.8044 12.3712C95.6509 12.434 95.5127 12.5297 95.3992 12.6516C95.2857 12.7735 95.1996 12.9189 95.1468 13.0776C95.0939 13.2364 95.0757 13.4049 95.0932 13.5715V16.535H94.1055V11.4692Z" fill="white"/>
<path d="M103.937 10.208V11.4923H105.021V12.3344H103.937V14.9393C103.937 15.4699 104.153 15.7023 104.645 15.7023C104.77 15.7019 104.896 15.6942 105.021 15.6792V16.512C104.844 16.5441 104.664 16.5612 104.484 16.563C103.385 16.563 102.948 16.1719 102.948 15.1952V12.3344H102.154V11.4923H102.948V10.208H103.937Z" fill="white"/>
<path d="M106.37 9.4917H107.349V12.2833H107.428C107.559 11.9916 107.776 11.7479 108.049 11.5855C108.322 11.4231 108.638 11.3499 108.954 11.3759C109.196 11.3625 109.438 11.4035 109.663 11.4958C109.888 11.588 110.09 11.7294 110.254 11.9098C110.419 12.0902 110.542 12.3051 110.615 12.5393C110.688 12.7734 110.709 13.021 110.677 13.2644V16.535H109.688V13.511C109.688 12.7019 109.316 12.2921 108.618 12.2921C108.448 12.278 108.278 12.3016 108.118 12.3613C107.958 12.421 107.813 12.5153 107.693 12.6376C107.573 12.76 107.481 12.9074 107.423 13.0695C107.365 13.2317 107.343 13.4047 107.358 13.5764V16.535H106.37L106.37 9.4917Z" fill="white"/>
<path d="M116.436 15.1672C116.302 15.6302 116.011 16.0307 115.615 16.2986C115.219 16.5665 114.742 16.6848 114.268 16.6328C113.938 16.6416 113.61 16.5777 113.308 16.4454C113.005 16.3132 112.734 16.1159 112.514 15.8671C112.294 15.6183 112.13 15.3241 112.034 15.0048C111.937 14.6855 111.911 14.3488 111.956 14.018C111.912 13.6863 111.939 13.3489 112.035 13.0286C112.131 12.7083 112.294 12.4127 112.513 12.1618C112.732 11.9108 113.001 11.7104 113.303 11.574C113.605 11.4377 113.933 11.3686 114.263 11.3714C115.656 11.3714 116.496 12.3344 116.496 13.9252V14.274H112.962V14.33C112.947 14.516 112.97 14.7031 113.03 14.8794C113.09 15.0558 113.186 15.2174 113.311 15.3541C113.437 15.4907 113.589 15.5993 113.759 15.6729C113.928 15.7464 114.111 15.7834 114.295 15.7813C114.531 15.81 114.771 15.7669 114.983 15.6576C115.195 15.5482 115.37 15.3775 115.486 15.1672L116.436 15.1672ZM112.962 13.5346H115.49C115.502 13.3646 115.48 13.1938 115.423 13.0333C115.366 12.8727 115.277 12.7259 115.161 12.6023C115.045 12.4788 114.905 12.3811 114.749 12.3156C114.594 12.2502 114.426 12.2184 114.258 12.2223C114.087 12.2201 113.918 12.2526 113.759 12.3178C113.601 12.383 113.457 12.4796 113.337 12.6019C113.216 12.7242 113.121 12.8697 113.056 13.0299C112.992 13.1901 112.96 13.3617 112.962 13.5346Z" fill="white"/>
</g>
<defs>
<clipPath id="clip0_734_14">
<rect width="133" height="45" fill="white"/>
</clipPath>
</defs>
</svg>
