<svg width="310" height="117" viewBox="0 0 310 117" fill="none" xmlns="http://www.w3.org/2000/svg">
<g filter="url(#filter0_di_735_133)">
<mask id="path-1-outside-1_735_133" maskUnits="userSpaceOnUse" x="4.57764" y="0.369995" width="301" height="109" fill="black">
<rect fill="white" x="4.57764" y="0.369995" width="301" height="109"/>
<path d="M34.4026 4.702C35.3213 5.16133 35.8513 5.88566 35.9926 6.875C36.1693 7.86433 35.922 8.76533 35.2506 9.578C34.7913 10.214 34.1906 10.5673 33.4486 10.638C32.742 10.7087 32.0176 10.5673 31.2756 10.214C30.4276 9.82533 29.5266 9.525 28.5726 9.31299C27.654 9.10099 26.6823 8.995 25.6576 8.995C23.7496 8.995 22.036 9.29533 20.5166 9.896C19.0326 10.4967 17.7606 11.3623 16.7006 12.493C15.6406 13.5883 14.828 14.8957 14.2626 16.415C13.7326 17.9343 13.4676 19.6127 13.4676 21.45C13.4676 23.6053 13.768 25.478 14.3686 27.068C15.0046 28.658 15.8703 29.983 16.9656 31.043C18.061 32.103 19.3506 32.898 20.8346 33.428C22.3186 33.9227 23.9263 34.17 25.6576 34.17C26.6116 34.17 27.5656 34.0817 28.5196 33.905C29.4736 33.7283 30.3923 33.4103 31.2756 32.951C32.0176 32.5977 32.742 32.474 33.4486 32.58C34.1906 32.686 34.809 33.057 35.3036 33.693C36.0103 34.5763 36.2576 35.495 36.0456 36.449C35.869 37.3677 35.339 38.039 34.4556 38.463C33.537 38.9223 32.583 39.311 31.5936 39.629C30.6396 39.9117 29.668 40.1237 28.6786 40.265C27.6893 40.4417 26.6823 40.53 25.6576 40.53C23.1136 40.53 20.6933 40.1237 18.3966 39.311C16.1353 38.4983 14.1036 37.297 12.3016 35.707C10.535 34.117 9.1393 32.1383 8.11464 29.771C7.08997 27.3683 6.57764 24.5947 6.57764 21.45C6.57764 18.7293 7.03697 16.2207 7.95564 13.924C8.90964 11.6273 10.2346 9.64866 11.9306 7.988C13.662 6.292 15.6936 4.98466 18.0256 4.066C20.3576 3.112 22.9016 2.63499 25.6576 2.63499C27.2123 2.63499 28.7316 2.81166 30.2156 3.16499C31.6996 3.51833 33.0953 4.03066 34.4026 4.702Z"/>
<path d="M45.0532 2.89999C45.9012 2.89999 46.6432 3.21799 47.2792 3.85399C47.9505 4.45466 48.2862 5.21433 48.2862 6.13299V36.767C48.2862 37.6857 47.9505 38.463 47.2792 39.099C46.6078 39.6997 45.8305 40 44.9472 40C43.9578 40 43.1628 39.6997 42.5622 39.099C41.9615 38.463 41.6612 37.6857 41.6612 36.767V6.13299C41.6612 5.21433 41.9792 4.45466 42.6152 3.85399C43.2512 3.21799 44.0638 2.89999 45.0532 2.89999ZM68.5322 2.89999C69.5215 2.89999 70.3165 3.21799 70.9172 3.85399C71.5178 4.45466 71.8182 5.21433 71.8182 6.13299V36.767C71.8182 37.6857 71.5002 38.463 70.8642 39.099C70.2635 39.6997 69.4508 40 68.4262 40C67.5782 40 66.8185 39.6997 66.1472 39.099C65.5112 38.463 65.1932 37.6857 65.1932 36.767V6.13299C65.1932 5.21433 65.5288 4.45466 66.2002 3.85399C66.8715 3.21799 67.6488 2.89999 68.5322 2.89999ZM44.8942 18.323H68.5322V24.418H44.8942V18.323Z"/>
<path d="M93.3759 11.221L81.9279 38.145C81.6806 38.8163 81.2919 39.3463 80.7619 39.735C80.2672 40.0883 79.7196 40.265 79.1189 40.265C78.1649 40.265 77.4582 40 76.9989 39.47C76.5396 38.94 76.3099 38.2863 76.3099 37.509C76.3099 37.191 76.3629 36.8553 76.4689 36.502L89.6659 4.808C89.9486 4.10133 90.3726 3.55366 90.9379 3.16499C91.5386 2.77633 92.1746 2.61733 92.8459 2.68799C93.4819 2.68799 94.0649 2.88233 94.5949 3.271C95.1602 3.62433 95.5666 4.13666 95.8139 4.808L108.852 35.866C109.029 36.3253 109.117 36.7493 109.117 37.138C109.117 38.092 108.799 38.8517 108.163 39.417C107.562 39.9823 106.891 40.265 106.149 40.265C105.513 40.265 104.93 40.0707 104.4 39.682C103.905 39.2933 103.517 38.7633 103.234 38.092L91.8389 11.539L93.3759 11.221ZM83.5709 31.679L86.4859 25.584H100.796L101.803 31.679H83.5709Z"/>
<path d="M134.063 33.799C134.981 33.799 135.741 34.0993 136.342 34.7C136.978 35.2653 137.296 36.0073 137.296 36.926C137.296 37.8093 136.978 38.5513 136.342 39.152C135.741 39.7173 134.981 40 134.063 40H116.838C115.919 40 115.142 39.6997 114.506 39.099C113.905 38.463 113.605 37.6857 113.605 36.767V6.13299C113.605 5.21433 113.923 4.45466 114.559 3.85399C115.195 3.21799 116.007 2.89999 116.997 2.89999C117.845 2.89999 118.587 3.21799 119.223 3.85399C119.894 4.45466 120.23 5.21433 120.23 6.13299V34.7L119.064 33.799H134.063Z"/>
<path d="M163.823 33.799C164.742 33.799 165.502 34.0993 166.102 34.7C166.738 35.2653 167.056 36.0073 167.056 36.926C167.056 37.8093 166.738 38.5513 166.102 39.152C165.502 39.7173 164.742 40 163.823 40H146.598C145.68 40 144.902 39.6997 144.266 39.099C143.666 38.463 143.365 37.6857 143.365 36.767V6.13299C143.365 5.21433 143.683 4.45466 144.319 3.85399C144.955 3.21799 145.768 2.89999 146.757 2.89999C147.605 2.89999 148.347 3.21799 148.983 3.85399C149.655 4.45466 149.99 5.21433 149.99 6.13299V34.7L148.824 33.799H163.823Z"/>
<path d="M176.359 2.89999H194.114C195.033 2.89999 195.792 3.20033 196.393 3.801C197.029 4.36633 197.347 5.10833 197.347 6.027C197.347 6.91033 197.029 7.63466 196.393 8.2C195.792 8.73 195.033 8.995 194.114 8.995H179.274L179.751 8.09399V18.429L179.327 18.005H191.729C192.648 18.005 193.407 18.3053 194.008 18.906C194.644 19.4713 194.962 20.2133 194.962 21.132C194.962 22.0153 194.644 22.7397 194.008 23.305C193.407 23.835 192.648 24.1 191.729 24.1H179.486L179.751 23.676V34.382L179.327 33.905H194.114C195.033 33.905 195.792 34.223 196.393 34.859C197.029 35.4597 197.347 36.1663 197.347 36.979C197.347 37.8623 197.029 38.5867 196.393 39.152C195.792 39.7173 195.033 40 194.114 40H176.359C175.44 40 174.663 39.6997 174.027 39.099C173.426 38.463 173.126 37.6857 173.126 36.767V6.13299C173.126 5.21433 173.426 4.45466 174.027 3.85399C174.663 3.21799 175.44 2.89999 176.359 2.89999Z"/>
<path d="M231.599 2.89999C232.447 2.89999 233.136 3.18266 233.666 3.748C234.196 4.31333 234.461 5.01999 234.461 5.86799V36.767C234.461 37.6857 234.143 38.463 233.507 39.099C232.906 39.6997 232.147 40 231.228 40C230.769 40 230.292 39.9293 229.797 39.788C229.338 39.6113 228.984 39.3817 228.737 39.099L207.908 12.652L209.286 11.804V37.032C209.286 37.88 209.003 38.5867 208.438 39.152C207.908 39.7173 207.201 40 206.318 40C205.47 40 204.781 39.7173 204.251 39.152C203.721 38.5867 203.456 37.88 203.456 37.032V6.13299C203.456 5.21433 203.756 4.45466 204.357 3.85399C204.993 3.21799 205.77 2.89999 206.689 2.89999C207.184 2.89999 207.696 3.006 208.226 3.218C208.756 3.39466 209.145 3.67733 209.392 4.066L229.585 29.824L228.684 30.46V5.86799C228.684 5.01999 228.949 4.31333 229.479 3.748C230.009 3.18266 230.716 2.89999 231.599 2.89999Z"/>
<path d="M259.92 40.53C257.234 40.53 254.726 40.0353 252.394 39.046C250.062 38.0567 248.012 36.6963 246.246 34.965C244.479 33.1983 243.083 31.1667 242.059 28.87C241.069 26.5733 240.575 24.1 240.575 21.45C240.575 18.8 241.069 16.3267 242.059 14.03C243.083 11.7333 244.479 9.71933 246.246 7.988C248.012 6.22133 250.062 4.84333 252.394 3.85399C254.726 2.86466 257.234 2.37 259.92 2.37C261.58 2.37 263.188 2.54666 264.743 2.89999C266.297 3.25333 267.728 3.78333 269.036 4.49C269.566 4.77266 269.954 5.16133 270.202 5.656C270.484 6.11533 270.626 6.59233 270.626 7.08699C270.626 7.935 270.343 8.69466 269.778 9.366C269.212 10.0373 268.488 10.373 267.605 10.373C267.322 10.373 267.022 10.3377 266.704 10.267C266.421 10.1963 266.138 10.0903 265.856 9.949C264.972 9.56033 264.036 9.26 263.047 9.04799C262.057 8.836 261.015 8.73 259.92 8.73C257.623 8.73 255.521 9.313 253.613 10.479C251.74 11.6097 250.238 13.1467 249.108 15.09C248.012 16.998 247.465 19.118 247.465 21.45C247.465 23.7467 248.012 25.8667 249.108 27.81C250.238 29.7533 251.74 31.308 253.613 32.474C255.521 33.6047 257.623 34.17 259.92 34.17C260.98 34.17 262.146 34.064 263.418 33.852C264.69 33.64 265.732 33.3573 266.545 33.004L266.068 34.594V25.531L266.969 26.326H261.086C260.167 26.326 259.39 26.0257 258.754 25.425C258.153 24.8243 257.853 24.0647 257.853 23.146C257.853 22.2273 258.153 21.4677 258.754 20.867C259.39 20.2663 260.167 19.966 261.086 19.966H269.778C270.696 19.966 271.456 20.284 272.057 20.92C272.657 21.5207 272.958 22.2803 272.958 23.199V34.435C272.958 35.1417 272.781 35.7247 272.428 36.184C272.11 36.6433 271.739 37.0143 271.315 37.297C269.689 38.2863 267.905 39.0813 265.962 39.682C264.054 40.2473 262.04 40.53 259.92 40.53Z"/>
<path d="M282.566 2.89999H300.321C301.24 2.89999 301.999 3.20033 302.6 3.801C303.236 4.36633 303.554 5.10833 303.554 6.027C303.554 6.91033 303.236 7.63466 302.6 8.2C301.999 8.73 301.24 8.995 300.321 8.995H285.481L285.958 8.09399V18.429L285.534 18.005H297.936C298.855 18.005 299.614 18.3053 300.215 18.906C300.851 19.4713 301.169 20.2133 301.169 21.132C301.169 22.0153 300.851 22.7397 300.215 23.305C299.614 23.835 298.855 24.1 297.936 24.1H285.693L285.958 23.676V34.382L285.534 33.905H300.321C301.24 33.905 301.999 34.223 302.6 34.859C303.236 35.4597 303.554 36.1663 303.554 36.979C303.554 37.8623 303.236 38.5867 302.6 39.152C301.999 39.7173 301.24 40 300.321 40H282.566C281.647 40 280.87 39.6997 280.234 39.099C279.633 38.463 279.333 37.6857 279.333 36.767V6.13299C279.333 5.21433 279.633 4.45466 280.234 3.85399C280.87 3.21799 281.647 2.89999 282.566 2.89999Z"/>
<path d="M129.42 106C128.431 106 127.636 105.594 127.035 104.781L114.792 88.669L119.615 83.74L132.282 100.488C132.777 101.159 133.024 101.884 133.024 102.661C133.024 103.65 132.653 104.463 131.911 105.099C131.169 105.7 130.339 106 129.42 106ZM130.056 68.635C130.904 68.635 131.593 68.9883 132.123 69.695C132.688 70.3663 132.971 71.0553 132.971 71.762C132.971 72.504 132.653 73.193 132.017 73.829L109.81 95.082L109.545 87.503L127.459 69.854C128.272 69.0413 129.137 68.635 130.056 68.635ZM107.16 106C106.171 106 105.376 105.7 104.775 105.099C104.174 104.463 103.874 103.686 103.874 102.767V72.133C103.874 71.2143 104.192 70.4547 104.828 69.854C105.464 69.218 106.277 68.9 107.266 68.9C108.255 68.9 109.033 69.218 109.598 69.854C110.199 70.4547 110.499 71.2143 110.499 72.133V102.767C110.499 103.686 110.199 104.463 109.598 105.099C108.997 105.7 108.185 106 107.16 106Z"/>
<path d="M145.229 102.767C145.229 103.686 144.893 104.463 144.222 105.099C143.55 105.7 142.773 106 141.89 106C140.9 106 140.105 105.7 139.505 105.099C138.904 104.463 138.604 103.686 138.604 102.767V72.133C138.604 71.2143 138.922 70.4547 139.558 69.854C140.194 69.218 141.006 68.9 141.996 68.9C142.844 68.9 143.586 69.218 144.222 69.854C144.893 70.4547 145.229 71.2143 145.229 72.133V102.767Z"/>
<path d="M181.342 68.9C182.19 68.9 182.879 69.1827 183.409 69.748C183.939 70.3133 184.204 71.02 184.204 71.868V102.767C184.204 103.686 183.886 104.463 183.25 105.099C182.65 105.7 181.89 106 180.971 106C180.512 106 180.035 105.929 179.54 105.788C179.081 105.611 178.728 105.382 178.48 105.099L157.651 78.652L159.029 77.804V103.032C159.029 103.88 158.747 104.587 158.181 105.152C157.651 105.717 156.945 106 156.061 106C155.213 106 154.524 105.717 153.994 105.152C153.464 104.587 153.199 103.88 153.199 103.032V72.133C153.199 71.2143 153.5 70.4547 154.1 69.854C154.736 69.218 155.514 68.9 156.432 68.9C156.927 68.9 157.439 69.006 157.969 69.218C158.499 69.3947 158.888 69.6773 159.135 70.066L179.328 95.824L178.427 96.46V71.868C178.427 71.02 178.692 70.3133 179.222 69.748C179.752 69.1827 180.459 68.9 181.342 68.9Z"/>
<path d="M209.663 106.53C206.978 106.53 204.469 106.035 202.137 105.046C199.805 104.057 197.756 102.696 195.989 100.965C194.222 99.1983 192.827 97.1667 191.802 94.87C190.813 92.5733 190.318 90.1 190.318 87.45C190.318 84.8 190.813 82.3267 191.802 80.03C192.827 77.7333 194.222 75.7193 195.989 73.988C197.756 72.2213 199.805 70.8433 202.137 69.854C204.469 68.8647 206.978 68.37 209.663 68.37C211.324 68.37 212.931 68.5467 214.486 68.9C216.041 69.2533 217.472 69.7833 218.779 70.49C219.309 70.7727 219.698 71.1613 219.945 71.656C220.228 72.1153 220.369 72.5923 220.369 73.087C220.369 73.935 220.086 74.6947 219.521 75.366C218.956 76.0373 218.231 76.373 217.348 76.373C217.065 76.373 216.765 76.3377 216.447 76.267C216.164 76.1963 215.882 76.0903 215.599 75.949C214.716 75.5603 213.779 75.26 212.79 75.048C211.801 74.836 210.758 74.73 209.663 74.73C207.366 74.73 205.264 75.313 203.356 76.479C201.483 77.6097 199.982 79.1467 198.851 81.09C197.756 82.998 197.208 85.118 197.208 87.45C197.208 89.7467 197.756 91.8667 198.851 93.81C199.982 95.7533 201.483 97.308 203.356 98.474C205.264 99.6047 207.366 100.17 209.663 100.17C210.723 100.17 211.889 100.064 213.161 99.852C214.433 99.64 215.475 99.3573 216.288 99.004L215.811 100.594V91.531L216.712 92.326H210.829C209.91 92.326 209.133 92.0257 208.497 91.425C207.896 90.8243 207.596 90.0647 207.596 89.146C207.596 88.2273 207.896 87.4677 208.497 86.867C209.133 86.2663 209.91 85.966 210.829 85.966H219.521C220.44 85.966 221.199 86.284 221.8 86.92C222.401 87.5207 222.701 88.2803 222.701 89.199V100.435C222.701 101.142 222.524 101.725 222.171 102.184C221.853 102.643 221.482 103.014 221.058 103.297C219.433 104.286 217.648 105.081 215.705 105.682C213.797 106.247 211.783 106.53 209.663 106.53Z"/>
</mask>
<path d="M34.4026 4.702C35.3213 5.16133 35.8513 5.88566 35.9926 6.875C36.1693 7.86433 35.922 8.76533 35.2506 9.578C34.7913 10.214 34.1906 10.5673 33.4486 10.638C32.742 10.7087 32.0176 10.5673 31.2756 10.214C30.4276 9.82533 29.5266 9.525 28.5726 9.31299C27.654 9.10099 26.6823 8.995 25.6576 8.995C23.7496 8.995 22.036 9.29533 20.5166 9.896C19.0326 10.4967 17.7606 11.3623 16.7006 12.493C15.6406 13.5883 14.828 14.8957 14.2626 16.415C13.7326 17.9343 13.4676 19.6127 13.4676 21.45C13.4676 23.6053 13.768 25.478 14.3686 27.068C15.0046 28.658 15.8703 29.983 16.9656 31.043C18.061 32.103 19.3506 32.898 20.8346 33.428C22.3186 33.9227 23.9263 34.17 25.6576 34.17C26.6116 34.17 27.5656 34.0817 28.5196 33.905C29.4736 33.7283 30.3923 33.4103 31.2756 32.951C32.0176 32.5977 32.742 32.474 33.4486 32.58C34.1906 32.686 34.809 33.057 35.3036 33.693C36.0103 34.5763 36.2576 35.495 36.0456 36.449C35.869 37.3677 35.339 38.039 34.4556 38.463C33.537 38.9223 32.583 39.311 31.5936 39.629C30.6396 39.9117 29.668 40.1237 28.6786 40.265C27.6893 40.4417 26.6823 40.53 25.6576 40.53C23.1136 40.53 20.6933 40.1237 18.3966 39.311C16.1353 38.4983 14.1036 37.297 12.3016 35.707C10.535 34.117 9.1393 32.1383 8.11464 29.771C7.08997 27.3683 6.57764 24.5947 6.57764 21.45C6.57764 18.7293 7.03697 16.2207 7.95564 13.924C8.90964 11.6273 10.2346 9.64866 11.9306 7.988C13.662 6.292 15.6936 4.98466 18.0256 4.066C20.3576 3.112 22.9016 2.63499 25.6576 2.63499C27.2123 2.63499 28.7316 2.81166 30.2156 3.16499C31.6996 3.51833 33.0953 4.03066 34.4026 4.702Z" fill="#5F9E9C"/>
<path d="M45.0532 2.89999C45.9012 2.89999 46.6432 3.21799 47.2792 3.85399C47.9505 4.45466 48.2862 5.21433 48.2862 6.13299V36.767C48.2862 37.6857 47.9505 38.463 47.2792 39.099C46.6078 39.6997 45.8305 40 44.9472 40C43.9578 40 43.1628 39.6997 42.5622 39.099C41.9615 38.463 41.6612 37.6857 41.6612 36.767V6.13299C41.6612 5.21433 41.9792 4.45466 42.6152 3.85399C43.2512 3.21799 44.0638 2.89999 45.0532 2.89999ZM68.5322 2.89999C69.5215 2.89999 70.3165 3.21799 70.9172 3.85399C71.5178 4.45466 71.8182 5.21433 71.8182 6.13299V36.767C71.8182 37.6857 71.5002 38.463 70.8642 39.099C70.2635 39.6997 69.4508 40 68.4262 40C67.5782 40 66.8185 39.6997 66.1472 39.099C65.5112 38.463 65.1932 37.6857 65.1932 36.767V6.13299C65.1932 5.21433 65.5288 4.45466 66.2002 3.85399C66.8715 3.21799 67.6488 2.89999 68.5322 2.89999ZM44.8942 18.323H68.5322V24.418H44.8942V18.323Z" fill="#5F9E9C"/>
<path d="M93.3759 11.221L81.9279 38.145C81.6806 38.8163 81.2919 39.3463 80.7619 39.735C80.2672 40.0883 79.7196 40.265 79.1189 40.265C78.1649 40.265 77.4582 40 76.9989 39.47C76.5396 38.94 76.3099 38.2863 76.3099 37.509C76.3099 37.191 76.3629 36.8553 76.4689 36.502L89.6659 4.808C89.9486 4.10133 90.3726 3.55366 90.9379 3.16499C91.5386 2.77633 92.1746 2.61733 92.8459 2.68799C93.4819 2.68799 94.0649 2.88233 94.5949 3.271C95.1602 3.62433 95.5666 4.13666 95.8139 4.808L108.852 35.866C109.029 36.3253 109.117 36.7493 109.117 37.138C109.117 38.092 108.799 38.8517 108.163 39.417C107.562 39.9823 106.891 40.265 106.149 40.265C105.513 40.265 104.93 40.0707 104.4 39.682C103.905 39.2933 103.517 38.7633 103.234 38.092L91.8389 11.539L93.3759 11.221ZM83.5709 31.679L86.4859 25.584H100.796L101.803 31.679H83.5709Z" fill="#5F9E9C"/>
<path d="M134.063 33.799C134.981 33.799 135.741 34.0993 136.342 34.7C136.978 35.2653 137.296 36.0073 137.296 36.926C137.296 37.8093 136.978 38.5513 136.342 39.152C135.741 39.7173 134.981 40 134.063 40H116.838C115.919 40 115.142 39.6997 114.506 39.099C113.905 38.463 113.605 37.6857 113.605 36.767V6.13299C113.605 5.21433 113.923 4.45466 114.559 3.85399C115.195 3.21799 116.007 2.89999 116.997 2.89999C117.845 2.89999 118.587 3.21799 119.223 3.85399C119.894 4.45466 120.23 5.21433 120.23 6.13299V34.7L119.064 33.799H134.063Z" fill="#5F9E9C"/>
<path d="M163.823 33.799C164.742 33.799 165.502 34.0993 166.102 34.7C166.738 35.2653 167.056 36.0073 167.056 36.926C167.056 37.8093 166.738 38.5513 166.102 39.152C165.502 39.7173 164.742 40 163.823 40H146.598C145.68 40 144.902 39.6997 144.266 39.099C143.666 38.463 143.365 37.6857 143.365 36.767V6.13299C143.365 5.21433 143.683 4.45466 144.319 3.85399C144.955 3.21799 145.768 2.89999 146.757 2.89999C147.605 2.89999 148.347 3.21799 148.983 3.85399C149.655 4.45466 149.99 5.21433 149.99 6.13299V34.7L148.824 33.799H163.823Z" fill="#5F9E9C"/>
<path d="M176.359 2.89999H194.114C195.033 2.89999 195.792 3.20033 196.393 3.801C197.029 4.36633 197.347 5.10833 197.347 6.027C197.347 6.91033 197.029 7.63466 196.393 8.2C195.792 8.73 195.033 8.995 194.114 8.995H179.274L179.751 8.09399V18.429L179.327 18.005H191.729C192.648 18.005 193.407 18.3053 194.008 18.906C194.644 19.4713 194.962 20.2133 194.962 21.132C194.962 22.0153 194.644 22.7397 194.008 23.305C193.407 23.835 192.648 24.1 191.729 24.1H179.486L179.751 23.676V34.382L179.327 33.905H194.114C195.033 33.905 195.792 34.223 196.393 34.859C197.029 35.4597 197.347 36.1663 197.347 36.979C197.347 37.8623 197.029 38.5867 196.393 39.152C195.792 39.7173 195.033 40 194.114 40H176.359C175.44 40 174.663 39.6997 174.027 39.099C173.426 38.463 173.126 37.6857 173.126 36.767V6.13299C173.126 5.21433 173.426 4.45466 174.027 3.85399C174.663 3.21799 175.44 2.89999 176.359 2.89999Z" fill="#5F9E9C"/>
<path d="M231.599 2.89999C232.447 2.89999 233.136 3.18266 233.666 3.748C234.196 4.31333 234.461 5.01999 234.461 5.86799V36.767C234.461 37.6857 234.143 38.463 233.507 39.099C232.906 39.6997 232.147 40 231.228 40C230.769 40 230.292 39.9293 229.797 39.788C229.338 39.6113 228.984 39.3817 228.737 39.099L207.908 12.652L209.286 11.804V37.032C209.286 37.88 209.003 38.5867 208.438 39.152C207.908 39.7173 207.201 40 206.318 40C205.47 40 204.781 39.7173 204.251 39.152C203.721 38.5867 203.456 37.88 203.456 37.032V6.13299C203.456 5.21433 203.756 4.45466 204.357 3.85399C204.993 3.21799 205.77 2.89999 206.689 2.89999C207.184 2.89999 207.696 3.006 208.226 3.218C208.756 3.39466 209.145 3.67733 209.392 4.066L229.585 29.824L228.684 30.46V5.86799C228.684 5.01999 228.949 4.31333 229.479 3.748C230.009 3.18266 230.716 2.89999 231.599 2.89999Z" fill="#5F9E9C"/>
<path d="M259.92 40.53C257.234 40.53 254.726 40.0353 252.394 39.046C250.062 38.0567 248.012 36.6963 246.246 34.965C244.479 33.1983 243.083 31.1667 242.059 28.87C241.069 26.5733 240.575 24.1 240.575 21.45C240.575 18.8 241.069 16.3267 242.059 14.03C243.083 11.7333 244.479 9.71933 246.246 7.988C248.012 6.22133 250.062 4.84333 252.394 3.85399C254.726 2.86466 257.234 2.37 259.92 2.37C261.58 2.37 263.188 2.54666 264.743 2.89999C266.297 3.25333 267.728 3.78333 269.036 4.49C269.566 4.77266 269.954 5.16133 270.202 5.656C270.484 6.11533 270.626 6.59233 270.626 7.08699C270.626 7.935 270.343 8.69466 269.778 9.366C269.212 10.0373 268.488 10.373 267.605 10.373C267.322 10.373 267.022 10.3377 266.704 10.267C266.421 10.1963 266.138 10.0903 265.856 9.949C264.972 9.56033 264.036 9.26 263.047 9.04799C262.057 8.836 261.015 8.73 259.92 8.73C257.623 8.73 255.521 9.313 253.613 10.479C251.74 11.6097 250.238 13.1467 249.108 15.09C248.012 16.998 247.465 19.118 247.465 21.45C247.465 23.7467 248.012 25.8667 249.108 27.81C250.238 29.7533 251.74 31.308 253.613 32.474C255.521 33.6047 257.623 34.17 259.92 34.17C260.98 34.17 262.146 34.064 263.418 33.852C264.69 33.64 265.732 33.3573 266.545 33.004L266.068 34.594V25.531L266.969 26.326H261.086C260.167 26.326 259.39 26.0257 258.754 25.425C258.153 24.8243 257.853 24.0647 257.853 23.146C257.853 22.2273 258.153 21.4677 258.754 20.867C259.39 20.2663 260.167 19.966 261.086 19.966H269.778C270.696 19.966 271.456 20.284 272.057 20.92C272.657 21.5207 272.958 22.2803 272.958 23.199V34.435C272.958 35.1417 272.781 35.7247 272.428 36.184C272.11 36.6433 271.739 37.0143 271.315 37.297C269.689 38.2863 267.905 39.0813 265.962 39.682C264.054 40.2473 262.04 40.53 259.92 40.53Z" fill="#5F9E9C"/>
<path d="M282.566 2.89999H300.321C301.24 2.89999 301.999 3.20033 302.6 3.801C303.236 4.36633 303.554 5.10833 303.554 6.027C303.554 6.91033 303.236 7.63466 302.6 8.2C301.999 8.73 301.24 8.995 300.321 8.995H285.481L285.958 8.09399V18.429L285.534 18.005H297.936C298.855 18.005 299.614 18.3053 300.215 18.906C300.851 19.4713 301.169 20.2133 301.169 21.132C301.169 22.0153 300.851 22.7397 300.215 23.305C299.614 23.835 298.855 24.1 297.936 24.1H285.693L285.958 23.676V34.382L285.534 33.905H300.321C301.24 33.905 301.999 34.223 302.6 34.859C303.236 35.4597 303.554 36.1663 303.554 36.979C303.554 37.8623 303.236 38.5867 302.6 39.152C301.999 39.7173 301.24 40 300.321 40H282.566C281.647 40 280.87 39.6997 280.234 39.099C279.633 38.463 279.333 37.6857 279.333 36.767V6.13299C279.333 5.21433 279.633 4.45466 280.234 3.85399C280.87 3.21799 281.647 2.89999 282.566 2.89999Z" fill="#5F9E9C"/>
<path d="M129.42 106C128.431 106 127.636 105.594 127.035 104.781L114.792 88.669L119.615 83.74L132.282 100.488C132.777 101.159 133.024 101.884 133.024 102.661C133.024 103.65 132.653 104.463 131.911 105.099C131.169 105.7 130.339 106 129.42 106ZM130.056 68.635C130.904 68.635 131.593 68.9883 132.123 69.695C132.688 70.3663 132.971 71.0553 132.971 71.762C132.971 72.504 132.653 73.193 132.017 73.829L109.81 95.082L109.545 87.503L127.459 69.854C128.272 69.0413 129.137 68.635 130.056 68.635ZM107.16 106C106.171 106 105.376 105.7 104.775 105.099C104.174 104.463 103.874 103.686 103.874 102.767V72.133C103.874 71.2143 104.192 70.4547 104.828 69.854C105.464 69.218 106.277 68.9 107.266 68.9C108.255 68.9 109.033 69.218 109.598 69.854C110.199 70.4547 110.499 71.2143 110.499 72.133V102.767C110.499 103.686 110.199 104.463 109.598 105.099C108.997 105.7 108.185 106 107.16 106Z" fill="#5F9E9C"/>
<path d="M145.229 102.767C145.229 103.686 144.893 104.463 144.222 105.099C143.55 105.7 142.773 106 141.89 106C140.9 106 140.105 105.7 139.505 105.099C138.904 104.463 138.604 103.686 138.604 102.767V72.133C138.604 71.2143 138.922 70.4547 139.558 69.854C140.194 69.218 141.006 68.9 141.996 68.9C142.844 68.9 143.586 69.218 144.222 69.854C144.893 70.4547 145.229 71.2143 145.229 72.133V102.767Z" fill="#5F9E9C"/>
<path d="M181.342 68.9C182.19 68.9 182.879 69.1827 183.409 69.748C183.939 70.3133 184.204 71.02 184.204 71.868V102.767C184.204 103.686 183.886 104.463 183.25 105.099C182.65 105.7 181.89 106 180.971 106C180.512 106 180.035 105.929 179.54 105.788C179.081 105.611 178.728 105.382 178.48 105.099L157.651 78.652L159.029 77.804V103.032C159.029 103.88 158.747 104.587 158.181 105.152C157.651 105.717 156.945 106 156.061 106C155.213 106 154.524 105.717 153.994 105.152C153.464 104.587 153.199 103.88 153.199 103.032V72.133C153.199 71.2143 153.5 70.4547 154.1 69.854C154.736 69.218 155.514 68.9 156.432 68.9C156.927 68.9 157.439 69.006 157.969 69.218C158.499 69.3947 158.888 69.6773 159.135 70.066L179.328 95.824L178.427 96.46V71.868C178.427 71.02 178.692 70.3133 179.222 69.748C179.752 69.1827 180.459 68.9 181.342 68.9Z" fill="#5F9E9C"/>
<path d="M209.663 106.53C206.978 106.53 204.469 106.035 202.137 105.046C199.805 104.057 197.756 102.696 195.989 100.965C194.222 99.1983 192.827 97.1667 191.802 94.87C190.813 92.5733 190.318 90.1 190.318 87.45C190.318 84.8 190.813 82.3267 191.802 80.03C192.827 77.7333 194.222 75.7193 195.989 73.988C197.756 72.2213 199.805 70.8433 202.137 69.854C204.469 68.8647 206.978 68.37 209.663 68.37C211.324 68.37 212.931 68.5467 214.486 68.9C216.041 69.2533 217.472 69.7833 218.779 70.49C219.309 70.7727 219.698 71.1613 219.945 71.656C220.228 72.1153 220.369 72.5923 220.369 73.087C220.369 73.935 220.086 74.6947 219.521 75.366C218.956 76.0373 218.231 76.373 217.348 76.373C217.065 76.373 216.765 76.3377 216.447 76.267C216.164 76.1963 215.882 76.0903 215.599 75.949C214.716 75.5603 213.779 75.26 212.79 75.048C211.801 74.836 210.758 74.73 209.663 74.73C207.366 74.73 205.264 75.313 203.356 76.479C201.483 77.6097 199.982 79.1467 198.851 81.09C197.756 82.998 197.208 85.118 197.208 87.45C197.208 89.7467 197.756 91.8667 198.851 93.81C199.982 95.7533 201.483 97.308 203.356 98.474C205.264 99.6047 207.366 100.17 209.663 100.17C210.723 100.17 211.889 100.064 213.161 99.852C214.433 99.64 215.475 99.3573 216.288 99.004L215.811 100.594V91.531L216.712 92.326H210.829C209.91 92.326 209.133 92.0257 208.497 91.425C207.896 90.8243 207.596 90.0647 207.596 89.146C207.596 88.2273 207.896 87.4677 208.497 86.867C209.133 86.2663 209.91 85.966 210.829 85.966H219.521C220.44 85.966 221.199 86.284 221.8 86.92C222.401 87.5207 222.701 88.2803 222.701 89.199V100.435C222.701 101.142 222.524 101.725 222.171 102.184C221.853 102.643 221.482 103.014 221.058 103.297C219.433 104.286 217.648 105.081 215.705 105.682C213.797 106.247 211.783 106.53 209.663 106.53Z" fill="#5F9E9C"/>
<path d="M34.4026 4.702C35.3213 5.16133 35.8513 5.88566 35.9926 6.875C36.1693 7.86433 35.922 8.76533 35.2506 9.578C34.7913 10.214 34.1906 10.5673 33.4486 10.638C32.742 10.7087 32.0176 10.5673 31.2756 10.214C30.4276 9.82533 29.5266 9.525 28.5726 9.31299C27.654 9.10099 26.6823 8.995 25.6576 8.995C23.7496 8.995 22.036 9.29533 20.5166 9.896C19.0326 10.4967 17.7606 11.3623 16.7006 12.493C15.6406 13.5883 14.828 14.8957 14.2626 16.415C13.7326 17.9343 13.4676 19.6127 13.4676 21.45C13.4676 23.6053 13.768 25.478 14.3686 27.068C15.0046 28.658 15.8703 29.983 16.9656 31.043C18.061 32.103 19.3506 32.898 20.8346 33.428C22.3186 33.9227 23.9263 34.17 25.6576 34.17C26.6116 34.17 27.5656 34.0817 28.5196 33.905C29.4736 33.7283 30.3923 33.4103 31.2756 32.951C32.0176 32.5977 32.742 32.474 33.4486 32.58C34.1906 32.686 34.809 33.057 35.3036 33.693C36.0103 34.5763 36.2576 35.495 36.0456 36.449C35.869 37.3677 35.339 38.039 34.4556 38.463C33.537 38.9223 32.583 39.311 31.5936 39.629C30.6396 39.9117 29.668 40.1237 28.6786 40.265C27.6893 40.4417 26.6823 40.53 25.6576 40.53C23.1136 40.53 20.6933 40.1237 18.3966 39.311C16.1353 38.4983 14.1036 37.297 12.3016 35.707C10.535 34.117 9.1393 32.1383 8.11464 29.771C7.08997 27.3683 6.57764 24.5947 6.57764 21.45C6.57764 18.7293 7.03697 16.2207 7.95564 13.924C8.90964 11.6273 10.2346 9.64866 11.9306 7.988C13.662 6.292 15.6936 4.98466 18.0256 4.066C20.3576 3.112 22.9016 2.63499 25.6576 2.63499C27.2123 2.63499 28.7316 2.81166 30.2156 3.16499C31.6996 3.51833 33.0953 4.03066 34.4026 4.702Z" stroke="white" stroke-width="4" mask="url(#path-1-outside-1_735_133)"/>
<path d="M45.0532 2.89999C45.9012 2.89999 46.6432 3.21799 47.2792 3.85399C47.9505 4.45466 48.2862 5.21433 48.2862 6.13299V36.767C48.2862 37.6857 47.9505 38.463 47.2792 39.099C46.6078 39.6997 45.8305 40 44.9472 40C43.9578 40 43.1628 39.6997 42.5622 39.099C41.9615 38.463 41.6612 37.6857 41.6612 36.767V6.13299C41.6612 5.21433 41.9792 4.45466 42.6152 3.85399C43.2512 3.21799 44.0638 2.89999 45.0532 2.89999ZM68.5322 2.89999C69.5215 2.89999 70.3165 3.21799 70.9172 3.85399C71.5178 4.45466 71.8182 5.21433 71.8182 6.13299V36.767C71.8182 37.6857 71.5002 38.463 70.8642 39.099C70.2635 39.6997 69.4508 40 68.4262 40C67.5782 40 66.8185 39.6997 66.1472 39.099C65.5112 38.463 65.1932 37.6857 65.1932 36.767V6.13299C65.1932 5.21433 65.5288 4.45466 66.2002 3.85399C66.8715 3.21799 67.6488 2.89999 68.5322 2.89999ZM44.8942 18.323H68.5322V24.418H44.8942V18.323Z" stroke="white" stroke-width="4" mask="url(#path-1-outside-1_735_133)"/>
<path d="M93.3759 11.221L81.9279 38.145C81.6806 38.8163 81.2919 39.3463 80.7619 39.735C80.2672 40.0883 79.7196 40.265 79.1189 40.265C78.1649 40.265 77.4582 40 76.9989 39.47C76.5396 38.94 76.3099 38.2863 76.3099 37.509C76.3099 37.191 76.3629 36.8553 76.4689 36.502L89.6659 4.808C89.9486 4.10133 90.3726 3.55366 90.9379 3.16499C91.5386 2.77633 92.1746 2.61733 92.8459 2.68799C93.4819 2.68799 94.0649 2.88233 94.5949 3.271C95.1602 3.62433 95.5666 4.13666 95.8139 4.808L108.852 35.866C109.029 36.3253 109.117 36.7493 109.117 37.138C109.117 38.092 108.799 38.8517 108.163 39.417C107.562 39.9823 106.891 40.265 106.149 40.265C105.513 40.265 104.93 40.0707 104.4 39.682C103.905 39.2933 103.517 38.7633 103.234 38.092L91.8389 11.539L93.3759 11.221ZM83.5709 31.679L86.4859 25.584H100.796L101.803 31.679H83.5709Z" stroke="white" stroke-width="4" mask="url(#path-1-outside-1_735_133)"/>
<path d="M134.063 33.799C134.981 33.799 135.741 34.0993 136.342 34.7C136.978 35.2653 137.296 36.0073 137.296 36.926C137.296 37.8093 136.978 38.5513 136.342 39.152C135.741 39.7173 134.981 40 134.063 40H116.838C115.919 40 115.142 39.6997 114.506 39.099C113.905 38.463 113.605 37.6857 113.605 36.767V6.13299C113.605 5.21433 113.923 4.45466 114.559 3.85399C115.195 3.21799 116.007 2.89999 116.997 2.89999C117.845 2.89999 118.587 3.21799 119.223 3.85399C119.894 4.45466 120.23 5.21433 120.23 6.13299V34.7L119.064 33.799H134.063Z" stroke="white" stroke-width="4" mask="url(#path-1-outside-1_735_133)"/>
<path d="M163.823 33.799C164.742 33.799 165.502 34.0993 166.102 34.7C166.738 35.2653 167.056 36.0073 167.056 36.926C167.056 37.8093 166.738 38.5513 166.102 39.152C165.502 39.7173 164.742 40 163.823 40H146.598C145.68 40 144.902 39.6997 144.266 39.099C143.666 38.463 143.365 37.6857 143.365 36.767V6.13299C143.365 5.21433 143.683 4.45466 144.319 3.85399C144.955 3.21799 145.768 2.89999 146.757 2.89999C147.605 2.89999 148.347 3.21799 148.983 3.85399C149.655 4.45466 149.99 5.21433 149.99 6.13299V34.7L148.824 33.799H163.823Z" stroke="white" stroke-width="4" mask="url(#path-1-outside-1_735_133)"/>
<path d="M176.359 2.89999H194.114C195.033 2.89999 195.792 3.20033 196.393 3.801C197.029 4.36633 197.347 5.10833 197.347 6.027C197.347 6.91033 197.029 7.63466 196.393 8.2C195.792 8.73 195.033 8.995 194.114 8.995H179.274L179.751 8.09399V18.429L179.327 18.005H191.729C192.648 18.005 193.407 18.3053 194.008 18.906C194.644 19.4713 194.962 20.2133 194.962 21.132C194.962 22.0153 194.644 22.7397 194.008 23.305C193.407 23.835 192.648 24.1 191.729 24.1H179.486L179.751 23.676V34.382L179.327 33.905H194.114C195.033 33.905 195.792 34.223 196.393 34.859C197.029 35.4597 197.347 36.1663 197.347 36.979C197.347 37.8623 197.029 38.5867 196.393 39.152C195.792 39.7173 195.033 40 194.114 40H176.359C175.44 40 174.663 39.6997 174.027 39.099C173.426 38.463 173.126 37.6857 173.126 36.767V6.13299C173.126 5.21433 173.426 4.45466 174.027 3.85399C174.663 3.21799 175.44 2.89999 176.359 2.89999Z" stroke="white" stroke-width="4" mask="url(#path-1-outside-1_735_133)"/>
<path d="M231.599 2.89999C232.447 2.89999 233.136 3.18266 233.666 3.748C234.196 4.31333 234.461 5.01999 234.461 5.86799V36.767C234.461 37.6857 234.143 38.463 233.507 39.099C232.906 39.6997 232.147 40 231.228 40C230.769 40 230.292 39.9293 229.797 39.788C229.338 39.6113 228.984 39.3817 228.737 39.099L207.908 12.652L209.286 11.804V37.032C209.286 37.88 209.003 38.5867 208.438 39.152C207.908 39.7173 207.201 40 206.318 40C205.47 40 204.781 39.7173 204.251 39.152C203.721 38.5867 203.456 37.88 203.456 37.032V6.13299C203.456 5.21433 203.756 4.45466 204.357 3.85399C204.993 3.21799 205.77 2.89999 206.689 2.89999C207.184 2.89999 207.696 3.006 208.226 3.218C208.756 3.39466 209.145 3.67733 209.392 4.066L229.585 29.824L228.684 30.46V5.86799C228.684 5.01999 228.949 4.31333 229.479 3.748C230.009 3.18266 230.716 2.89999 231.599 2.89999Z" stroke="white" stroke-width="4" mask="url(#path-1-outside-1_735_133)"/>
<path d="M259.92 40.53C257.234 40.53 254.726 40.0353 252.394 39.046C250.062 38.0567 248.012 36.6963 246.246 34.965C244.479 33.1983 243.083 31.1667 242.059 28.87C241.069 26.5733 240.575 24.1 240.575 21.45C240.575 18.8 241.069 16.3267 242.059 14.03C243.083 11.7333 244.479 9.71933 246.246 7.988C248.012 6.22133 250.062 4.84333 252.394 3.85399C254.726 2.86466 257.234 2.37 259.92 2.37C261.58 2.37 263.188 2.54666 264.743 2.89999C266.297 3.25333 267.728 3.78333 269.036 4.49C269.566 4.77266 269.954 5.16133 270.202 5.656C270.484 6.11533 270.626 6.59233 270.626 7.08699C270.626 7.935 270.343 8.69466 269.778 9.366C269.212 10.0373 268.488 10.373 267.605 10.373C267.322 10.373 267.022 10.3377 266.704 10.267C266.421 10.1963 266.138 10.0903 265.856 9.949C264.972 9.56033 264.036 9.26 263.047 9.04799C262.057 8.836 261.015 8.73 259.92 8.73C257.623 8.73 255.521 9.313 253.613 10.479C251.74 11.6097 250.238 13.1467 249.108 15.09C248.012 16.998 247.465 19.118 247.465 21.45C247.465 23.7467 248.012 25.8667 249.108 27.81C250.238 29.7533 251.74 31.308 253.613 32.474C255.521 33.6047 257.623 34.17 259.92 34.17C260.98 34.17 262.146 34.064 263.418 33.852C264.69 33.64 265.732 33.3573 266.545 33.004L266.068 34.594V25.531L266.969 26.326H261.086C260.167 26.326 259.39 26.0257 258.754 25.425C258.153 24.8243 257.853 24.0647 257.853 23.146C257.853 22.2273 258.153 21.4677 258.754 20.867C259.39 20.2663 260.167 19.966 261.086 19.966H269.778C270.696 19.966 271.456 20.284 272.057 20.92C272.657 21.5207 272.958 22.2803 272.958 23.199V34.435C272.958 35.1417 272.781 35.7247 272.428 36.184C272.11 36.6433 271.739 37.0143 271.315 37.297C269.689 38.2863 267.905 39.0813 265.962 39.682C264.054 40.2473 262.04 40.53 259.92 40.53Z" stroke="white" stroke-width="4" mask="url(#path-1-outside-1_735_133)"/>
<path d="M282.566 2.89999H300.321C301.24 2.89999 301.999 3.20033 302.6 3.801C303.236 4.36633 303.554 5.10833 303.554 6.027C303.554 6.91033 303.236 7.63466 302.6 8.2C301.999 8.73 301.24 8.995 300.321 8.995H285.481L285.958 8.09399V18.429L285.534 18.005H297.936C298.855 18.005 299.614 18.3053 300.215 18.906C300.851 19.4713 301.169 20.2133 301.169 21.132C301.169 22.0153 300.851 22.7397 300.215 23.305C299.614 23.835 298.855 24.1 297.936 24.1H285.693L285.958 23.676V34.382L285.534 33.905H300.321C301.24 33.905 301.999 34.223 302.6 34.859C303.236 35.4597 303.554 36.1663 303.554 36.979C303.554 37.8623 303.236 38.5867 302.6 39.152C301.999 39.7173 301.24 40 300.321 40H282.566C281.647 40 280.87 39.6997 280.234 39.099C279.633 38.463 279.333 37.6857 279.333 36.767V6.13299C279.333 5.21433 279.633 4.45466 280.234 3.85399C280.87 3.21799 281.647 2.89999 282.566 2.89999Z" stroke="white" stroke-width="4" mask="url(#path-1-outside-1_735_133)"/>
<path d="M129.42 106C128.431 106 127.636 105.594 127.035 104.781L114.792 88.669L119.615 83.74L132.282 100.488C132.777 101.159 133.024 101.884 133.024 102.661C133.024 103.65 132.653 104.463 131.911 105.099C131.169 105.7 130.339 106 129.42 106ZM130.056 68.635C130.904 68.635 131.593 68.9883 132.123 69.695C132.688 70.3663 132.971 71.0553 132.971 71.762C132.971 72.504 132.653 73.193 132.017 73.829L109.81 95.082L109.545 87.503L127.459 69.854C128.272 69.0413 129.137 68.635 130.056 68.635ZM107.16 106C106.171 106 105.376 105.7 104.775 105.099C104.174 104.463 103.874 103.686 103.874 102.767V72.133C103.874 71.2143 104.192 70.4547 104.828 69.854C105.464 69.218 106.277 68.9 107.266 68.9C108.255 68.9 109.033 69.218 109.598 69.854C110.199 70.4547 110.499 71.2143 110.499 72.133V102.767C110.499 103.686 110.199 104.463 109.598 105.099C108.997 105.7 108.185 106 107.16 106Z" stroke="white" stroke-width="4" mask="url(#path-1-outside-1_735_133)"/>
<path d="M145.229 102.767C145.229 103.686 144.893 104.463 144.222 105.099C143.55 105.7 142.773 106 141.89 106C140.9 106 140.105 105.7 139.505 105.099C138.904 104.463 138.604 103.686 138.604 102.767V72.133C138.604 71.2143 138.922 70.4547 139.558 69.854C140.194 69.218 141.006 68.9 141.996 68.9C142.844 68.9 143.586 69.218 144.222 69.854C144.893 70.4547 145.229 71.2143 145.229 72.133V102.767Z" stroke="white" stroke-width="4" mask="url(#path-1-outside-1_735_133)"/>
<path d="M181.342 68.9C182.19 68.9 182.879 69.1827 183.409 69.748C183.939 70.3133 184.204 71.02 184.204 71.868V102.767C184.204 103.686 183.886 104.463 183.25 105.099C182.65 105.7 181.89 106 180.971 106C180.512 106 180.035 105.929 179.54 105.788C179.081 105.611 178.728 105.382 178.48 105.099L157.651 78.652L159.029 77.804V103.032C159.029 103.88 158.747 104.587 158.181 105.152C157.651 105.717 156.945 106 156.061 106C155.213 106 154.524 105.717 153.994 105.152C153.464 104.587 153.199 103.88 153.199 103.032V72.133C153.199 71.2143 153.5 70.4547 154.1 69.854C154.736 69.218 155.514 68.9 156.432 68.9C156.927 68.9 157.439 69.006 157.969 69.218C158.499 69.3947 158.888 69.6773 159.135 70.066L179.328 95.824L178.427 96.46V71.868C178.427 71.02 178.692 70.3133 179.222 69.748C179.752 69.1827 180.459 68.9 181.342 68.9Z" stroke="white" stroke-width="4" mask="url(#path-1-outside-1_735_133)"/>
<path d="M209.663 106.53C206.978 106.53 204.469 106.035 202.137 105.046C199.805 104.057 197.756 102.696 195.989 100.965C194.222 99.1983 192.827 97.1667 191.802 94.87C190.813 92.5733 190.318 90.1 190.318 87.45C190.318 84.8 190.813 82.3267 191.802 80.03C192.827 77.7333 194.222 75.7193 195.989 73.988C197.756 72.2213 199.805 70.8433 202.137 69.854C204.469 68.8647 206.978 68.37 209.663 68.37C211.324 68.37 212.931 68.5467 214.486 68.9C216.041 69.2533 217.472 69.7833 218.779 70.49C219.309 70.7727 219.698 71.1613 219.945 71.656C220.228 72.1153 220.369 72.5923 220.369 73.087C220.369 73.935 220.086 74.6947 219.521 75.366C218.956 76.0373 218.231 76.373 217.348 76.373C217.065 76.373 216.765 76.3377 216.447 76.267C216.164 76.1963 215.882 76.0903 215.599 75.949C214.716 75.5603 213.779 75.26 212.79 75.048C211.801 74.836 210.758 74.73 209.663 74.73C207.366 74.73 205.264 75.313 203.356 76.479C201.483 77.6097 199.982 79.1467 198.851 81.09C197.756 82.998 197.208 85.118 197.208 87.45C197.208 89.7467 197.756 91.8667 198.851 93.81C199.982 95.7533 201.483 97.308 203.356 98.474C205.264 99.6047 207.366 100.17 209.663 100.17C210.723 100.17 211.889 100.064 213.161 99.852C214.433 99.64 215.475 99.3573 216.288 99.004L215.811 100.594V91.531L216.712 92.326H210.829C209.91 92.326 209.133 92.0257 208.497 91.425C207.896 90.8243 207.596 90.0647 207.596 89.146C207.596 88.2273 207.896 87.4677 208.497 86.867C209.133 86.2663 209.91 85.966 210.829 85.966H219.521C220.44 85.966 221.199 86.284 221.8 86.92C222.401 87.5207 222.701 88.2803 222.701 89.199V100.435C222.701 101.142 222.524 101.725 222.171 102.184C221.853 102.643 221.482 103.014 221.058 103.297C219.433 104.286 217.648 105.081 215.705 105.682C213.797 106.247 211.783 106.53 209.663 106.53Z" stroke="white" stroke-width="4" mask="url(#path-1-outside-1_735_133)"/>
</g>
<defs>
<filter id="filter0_di_735_133" x="0.577637" y="0.369995" width="308.976" height="116.16" filterUnits="userSpaceOnUse" color-interpolation-filters="sRGB">
<feFlood flood-opacity="0" result="BackgroundImageFix"/>
<feColorMatrix in="SourceAlpha" type="matrix" values="0 0 0 0 0 0 0 0 0 0 0 0 0 0 0 0 0 0 127 0" result="hardAlpha"/>
<feOffset dy="4"/>
<feGaussianBlur stdDeviation="2"/>
<feComposite in2="hardAlpha" operator="out"/>
<feColorMatrix type="matrix" values="0 0 0 0 0 0 0 0 0 0 0 0 0 0 0 0 0 0 0.25 0"/>
<feBlend mode="normal" in2="BackgroundImageFix" result="effect1_dropShadow_735_133"/>
<feBlend mode="normal" in="SourceGraphic" in2="effect1_dropShadow_735_133" result="shape"/>
<feColorMatrix in="SourceAlpha" type="matrix" values="0 0 0 0 0 0 0 0 0 0 0 0 0 0 0 0 0 0 127 0" result="hardAlpha"/>
<feOffset dy="4"/>
<feGaussianBlur stdDeviation="2"/>
<feComposite in2="hardAlpha" operator="arithmetic" k2="-1" k3="1"/>
<feColorMatrix type="matrix" values="0 0 0 0 0 0 0 0 0 0 0 0 0 0 0 0 0 0 0.25 0"/>
<feBlend mode="normal" in2="shape" result="effect2_innerShadow_735_133"/>
</filter>
</defs>
</svg>
